<svg id="fi_10278992" height="512" viewBox="0 0 28 28" width="512"
    xmlns="http://www.w3.org/2000/svg" data-name="Layer 1">
    <path
        d="m6.26 3.67 4.33 4.33h-7.5a5.96 5.96 0 0 1 3.17-4.33zm5.82-.67h-3.08c-.19 0-.38.01-.57.02l4.98 4.98h3.67zm6.92 0h-4.08l5 5h4.99a5.99 5.99 0 0 0 -5.91-5zm-6.5181 16.626 5-2.75a.9992.9992 0 0 0 0-1.752l-5-2.75a1 1 0 0 0 -1.4819.876v5.5a1 1 0 0 0 1.4819.876zm12.5181-9.626v9a6.0048 6.0048 0 0 1 -6 6h-10a6.0048 6.0048 0 0 1 -6-6v-9z"
        fill="#0c2739"></path>
</svg>